<svg xmlns="http://www.w3.org/2000/svg" viewBox="0 0 635 660">
	<defs>
		<style>
			.cls-1 {
				fill: #171717;
			}
		</style>
	</defs>
	<title>Logo</title>
	<g id="logo" data-name="Logo">
		<g id="Layer_1-2" data-name="Layer 1">
			<path class="cls-1" d="M430,0H80a80,80,0,0,0,0,160H225v90H192a80,80,0,0,0,0,160h33V580a80,80,0,0,0,160,0V410h45c113,0,205-92,205-205S543,0,430,0ZM225,380H192a50,50,0,0,1,0-100h33ZM385,206.89c0-.63,0-1.26,0-1.89a45,45,0,1,1,0,1.89ZM430,380l-45,0V280h0L430,280a75,75,0,1,0-75-75V580a50,50,0,0,1-100,0V130H80A50,50,0,0,1,80,30H430c96.49,0,175,78.5,175,175S526.49,380,430,380Z"/>
		</g>
	</g>
</svg>